<?xml version="1.0"?>
<svg version="1.1" xmlns="http://www.w3.org/2000/svg" viewBox="33.1308 33.6738 92.2852 67.7242">
  <path id="shapePath1" d="M125.416,33.6738 L125.416,35.4805 C123.691,35.4805 122.291,35.7897 121.217,36.4082 C120.143,37.0267 119.117,38.1823 118.141,39.875 C117.49,41.0143 116.464,43.7324 115.064,48.0293 L96.6074,101.398 L94.6543,101.398 L79.5664,59.0644 L64.5761,101.398 L62.8183,101.398 L43.1406,46.418 C41.6758,42.3164 40.748,39.8913 40.3574,39.1426 C39.7064,37.9056 38.8193,36.986 37.6963,36.3838 C36.5732,35.7816 35.0514,35.4805 33.1308,35.4805 L33.1308,33.6738 L57.6425,33.6738 L57.6425,35.4805 L56.4707,35.4805 C54.7454,35.4805 53.4271,35.8711 52.5156,36.6523 C51.6041,37.4336 51.1484,38.3776 51.1484,39.4844 C51.1484,40.6237 51.8646,43.2441 53.2968,47.3457 L66.334,84.5039 L77.3203,52.9121 L75.3672,47.3457 L73.8047,42.9023 C73.1211,41.2747 72.3561,39.8424 71.5097,38.6055 C71.0866,37.987 70.5657,37.4661 69.9472,37.043 C69.1334,36.457 68.3196,36.0338 67.5058,35.7734 C66.8873,35.5781 65.9108,35.4805 64.5761,35.4805 L64.5761,33.6738 L90.3574,33.6738 L90.3574,35.4805 L88.5996,35.4805 C86.7767,35.4805 85.442,35.8711 84.5957,36.6523 C83.7493,37.4336 83.3261,38.4915 83.3261,39.8262 C83.3261,41.4863 84.0586,44.3835 85.5234,48.5176 L98.2187,84.5039 L110.816,48.0293 C112.249,43.9928 112.965,41.1934 112.965,39.6309 C112.965,38.8822 112.729,38.1823 112.257,37.5312 C111.785,36.8802 111.191,36.4245 110.475,36.1641 C109.238,35.7083 107.626,35.4805 105.641,35.4805 L105.641,33.6738 L125.416,33.6738 Z" />
</svg>
